<svg width="88" height="84" viewBox="0 0 88 84" fill="none" xmlns="http://www.w3.org/2000/svg">
<path d="M15.1325 61.4559C8.0296 53.1177 5.25019 32.1176 16.3678 20.3824C27.4854 8.64708 42.4341 8.62361 50.3384 10.3573C44.7796 11.7587 25.9414 22.2353 27.1767 44.4706C28.1649 62.2588 44.059 71.0294 51.8825 73.1911C29.6471 75.3529 22.2353 69.7941 15.1325 61.4559Z" fill="#E0BF89"/>
<path d="M50.9561 10.5C50.7568 10.4515 50.5508 10.4039 50.3384 10.3573M50.3384 10.3573C42.4341 8.62361 27.4854 8.64708 16.3678 20.3824C5.25019 32.1176 8.0296 53.1177 15.1325 61.4559C22.2353 69.7941 29.6471 75.3529 51.8825 73.1911C44.059 71.0294 28.1649 62.2588 27.1767 44.4706C25.9414 22.2353 44.7796 11.7587 50.3384 10.3573Z" stroke="#E0BF89"/>
<circle cx="30.5735" cy="3.39706" r="2.16176" fill="#E0BF89"/>
<circle cx="41.0735" cy="2.16176" r="2.16176" fill="#E0BF89"/>
<circle cx="51.5735" cy="2.77944" r="2.16176" fill="#E0BF89"/>
<circle cx="61.4558" cy="5.86764" r="2.16176" fill="#E0BF89"/>
<circle cx="70.1029" cy="10.8088" r="2.16176" fill="#E0BF89"/>
<circle cx="77.5147" cy="18.2206" r="2.16176" fill="#E0BF89"/>
<circle cx="82.4558" cy="26.8676" r="2.16176" fill="#E0BF89"/>
<circle cx="85.5441" cy="36.75" r="2.16176" fill="#E0BF89"/>
<circle cx="85.5441" cy="46.6323" r="2.16176" fill="#E0BF89"/>
<circle cx="83.0735" cy="56.5147" r="2.16176" fill="#E0BF89"/>
<circle cx="77.5147" cy="65.1618" r="2.16176" fill="#E0BF89"/>
<circle cx="70.1029" cy="72.5735" r="2.16176" fill="#E0BF89"/>
<circle cx="61.4558" cy="78.1323" r="2.16176" fill="#E0BF89"/>
<circle cx="51.5735" cy="80.6029" r="2.16176" fill="#E0BF89"/>
<circle cx="41.0735" cy="81.8382" r="2.16176" fill="#E0BF89"/>
<circle cx="30.5735" cy="79.9853" r="2.16176" fill="#E0BF89"/>
<circle cx="21.3089" cy="75.6618" r="2.16176" fill="#E0BF89"/>
<circle cx="13.2794" cy="69.4853" r="2.16176" fill="#E0BF89"/>
<circle cx="7.10293" cy="60.8382" r="2.16176" fill="#E0BF89"/>
<circle cx="3.39712" cy="51.5735" r="2.16176" fill="#E0BF89"/>
<circle cx="2.16176" cy="41.6912" r="2.16176" fill="#E0BF89"/>
<circle cx="2.77944" cy="32.4265" r="2.16176" fill="#E0BF89"/>
<circle cx="7.10293" cy="23.1618" r="2.16176" fill="#E0BF89"/>
<circle cx="12.6618" cy="15.1323" r="2.16176" fill="#E0BF89"/>
<circle cx="21.3089" cy="8.33822" r="2.16176" fill="#E0BF89"/>
<path d="M52.1911 21C51.2647 23.1618 50.5441 32.4265 50.3382 36.75C50.3382 36.75 43.8529 30.5735 44.1617 32.1176C44.4706 33.6618 48.1764 38.2941 48.1764 38.2941C48.1764 38.2941 36.1323 39.8382 36.4411 40.1471C36.75 40.4559 48.1764 41.6912 48.1764 41.6912C48.1764 41.6912 44.1617 47.8676 44.4706 47.8676C44.7794 47.8676 50.3382 43.5441 50.3382 43.5441C50.3382 43.5441 51.8823 58.9853 52.1911 58.6765C52.5 58.3676 54.0441 43.2353 54.0441 43.2353C54.0441 43.2353 60.2205 48.1765 60.2206 47.8676C60.2206 47.5588 55.5882 41.3824 55.5882 41.3824C55.5882 41.3824 69.1764 40.1471 68.8676 39.8382C68.5588 39.5294 55.5882 38.2941 55.5882 38.2941C55.5882 38.2941 60.8382 32.4265 59.9117 32.4265C58.9853 32.4265 55.6911 34.7941 54.0441 36.1324C53.6323 31.6029 53.1176 23.1618 52.1911 21Z" fill="#E0BF89" stroke="#E0BF89"/>
</svg>
