<svg width="171" height="167" viewBox="0 0 171 167" fill="none" xmlns="http://www.w3.org/2000/svg">
<path d="M50.4831 99.884C48.6027 98.8369 44.5721 97.563 44.5721 97.563C42.3907 109.098 44.9662 121.534 46.261 124.134C47.9144 124.517 49.2819 124.683 50.9053 124.852C52.5238 119.895 52.2423 104.948 50.4831 99.884Z" fill="black"/>
<path d="M122.4 98.618C121.737 98.8952 121.079 99.2071 120.429 99.5493C118.248 108.816 118.248 118.874 120.078 124.988C120.616 124.953 121.156 124.908 121.696 124.852C122.731 124.745 123.768 124.565 124.792 124.328C127.185 117.889 128.029 104.174 126.27 97.2728C124.948 97.6497 123.65 98.0956 122.4 98.618Z" fill="black"/>
<path fill-rule="evenodd" clip-rule="evenodd" d="M23.9541 1.20666C20.8344 1.18322 13.4551 8.73231 8.89521 39.1162C4.33533 69.5001 5.1657 80.2611 5.51753 83.1447C3.33611 87.224 0.788755 93.4274 1.01393 100.517C1.29541 109.379 1.43615 121.336 9.73965 132.73C18.0431 144.124 31.3428 158.401 68.216 164.661C97.7145 169.668 126.997 159.433 137.951 153.689C144.894 150.453 160.357 139.608 166.662 122.109C172.967 104.61 168.913 88.0915 166.099 82.0194C164.832 66.6165 161.82 34.0241 159.906 26.8783C157.514 17.946 155.332 5.14533 148.225 1.48801C142.539 -1.43784 131.501 9.50599 126.692 15.3436C122.306 20.3842 112.365 32.1814 107.693 39.0459C99.1078 37.6627 78.2505 35.7683 63.5013 39.2569C58.9508 33.0441 48.2735 19.015 41.9685 12.6006C34.0872 4.58265 28.0355 1.13632 23.9541 1.20666ZM33.2428 118.382C23.2223 111.348 20.5764 101.525 20.506 97.4927C24.7667 95.8563 34.4893 94.1947 44.5721 97.563C44.5721 97.563 48.6027 98.8369 50.4831 99.884C65.2605 108.113 69.553 119.155 69.7641 121.758C69.2715 123.164 58.2497 125.616 50.9053 124.852C49.2819 124.683 47.9144 124.517 46.261 124.134C41.8177 123.104 37.3418 121.259 33.2428 118.382ZM150.407 97.7037C151.04 99.884 147.029 111.419 137.74 118.311C134.779 120.509 129.931 123.139 124.792 124.328C123.768 124.565 122.731 124.745 121.696 124.852C121.156 124.908 120.616 124.953 120.078 124.988C110.578 125.595 101.454 122.956 101.289 121.476C101.024 119.089 109.704 105.197 120.429 99.5493C121.079 99.2071 121.737 98.8952 122.4 98.618C123.65 98.0956 124.948 97.6497 126.27 97.2728C137.229 94.1485 149.841 95.7581 150.407 97.7037Z" fill="black"/>
<path d="M69.7641 121.758C69.553 119.155 65.2605 108.113 50.4831 99.884C52.2423 104.948 52.5238 119.895 50.9053 124.852C58.2497 125.616 69.2715 123.164 69.7641 121.758Z" fill="white"/>
<path d="M120.429 99.5493C109.704 105.197 101.024 119.089 101.289 121.476C101.454 122.956 110.578 125.595 120.078 124.988C118.248 118.874 118.248 108.816 120.429 99.5493Z" fill="white"/>
<path d="M137.74 118.311C147.029 111.419 151.04 99.884 150.407 97.7037C149.841 95.7581 137.229 94.1485 126.27 97.2728C128.029 104.174 127.185 117.889 124.792 124.328C129.931 123.139 134.779 120.509 137.74 118.311Z" fill="url(#paint0_linear_451010_148)"/>
<path d="M20.506 97.4927C20.5764 101.525 23.2223 111.348 33.2428 118.382C37.3418 121.259 41.8177 123.104 46.261 124.134C44.9662 121.534 42.3907 109.098 44.5721 97.563C34.4893 94.1947 24.7667 95.8563 20.506 97.4927Z" fill="url(#paint1_linear_451010_148)"/>
<path d="M50.4831 99.884C65.2605 108.113 69.553 119.155 69.7641 121.758C69.2715 123.164 58.2497 125.616 50.9053 124.852M50.4831 99.884C48.6027 98.8369 44.5721 97.563 44.5721 97.563M50.4831 99.884C52.2423 104.948 52.5238 119.895 50.9053 124.852M44.5721 97.563C34.4893 94.1947 24.7667 95.8563 20.506 97.4927C20.5764 101.525 23.2223 111.348 33.2428 118.382C37.3418 121.259 41.8177 123.104 46.261 124.134M44.5721 97.563C42.3907 109.098 44.9662 121.534 46.261 124.134M46.261 124.134C47.9144 124.517 49.2819 124.683 50.9053 124.852M120.429 99.5493C109.704 105.197 101.024 119.089 101.289 121.476C101.454 122.956 110.578 125.595 120.078 124.988M120.429 99.5493C121.079 99.2071 121.737 98.8952 122.4 98.618C123.65 98.0956 124.948 97.6497 126.27 97.2728M120.429 99.5493C118.248 108.816 118.248 118.874 120.078 124.988M120.078 124.988C120.616 124.953 121.156 124.908 121.696 124.852C122.731 124.745 123.768 124.565 124.792 124.328M126.27 97.2728C137.229 94.1485 149.841 95.7581 150.407 97.7037C151.04 99.884 147.029 111.419 137.74 118.311C134.779 120.509 129.931 123.139 124.792 124.328M126.27 97.2728C128.029 104.174 127.185 117.889 124.792 124.328M23.9541 1.20666C20.8344 1.18322 13.4551 8.73231 8.89521 39.1162C4.33533 69.5001 5.1657 80.2611 5.51753 83.1447C3.33611 87.224 0.788755 93.4274 1.01393 100.517C1.29541 109.379 1.43615 121.336 9.73965 132.73C18.0431 144.124 31.3428 158.401 68.216 164.661C97.7145 169.668 126.997 159.433 137.951 153.689C144.894 150.453 160.357 139.608 166.662 122.109C172.967 104.61 168.913 88.0915 166.099 82.0194C164.832 66.6165 161.82 34.0241 159.906 26.8783C157.514 17.946 155.332 5.14533 148.225 1.48801C142.539 -1.43784 131.501 9.50599 126.692 15.3436C122.306 20.3842 112.365 32.1814 107.693 39.0459C99.1078 37.6627 78.2505 35.7683 63.5013 39.2569C58.9508 33.0441 48.2735 19.015 41.9685 12.6006C34.0872 4.58265 28.0355 1.13632 23.9541 1.20666Z" stroke="black"/>
<defs>
<linearGradient id="paint0_linear_451010_148" x1="153.489" y1="96.1607" x2="101.848" y2="121.22" gradientUnits="userSpaceOnUse">
<stop/>
<stop offset="0.18" stop-color="white" stop-opacity="0.6"/>
<stop offset="0.34" stop-color="white"/>
</linearGradient>
<linearGradient id="paint1_linear_451010_148" x1="17.5366" y1="95.809" x2="68.8962" y2="120.235" gradientUnits="userSpaceOnUse">
<stop/>
<stop offset="0.183272" stop-color="white" stop-opacity="0.6"/>
<stop offset="0.335057" stop-color="white"/>
</linearGradient>
</defs>
</svg>
