<svg width="44" height="44" viewBox="0 0 44 44" fill="none" xmlns="http://www.w3.org/2000/svg">
<path d="M22 3.66667C19.5924 3.66667 17.2084 4.14088 14.9841 5.06221C12.7598 5.98355 10.7387 7.33397 9.03633 9.03638C5.59817 12.4745 3.66663 17.1377 3.66663 22C3.66663 30.1033 8.92829 36.9783 16.2066 39.4167C17.1233 39.5633 17.4166 38.995 17.4166 38.5V35.4017C12.3383 36.5017 11.2566 32.945 11.2566 32.945C10.4133 30.8183 9.22163 30.25 9.22163 30.25C7.55329 29.1133 9.34996 29.15 9.34996 29.15C11.1833 29.2783 12.155 31.0383 12.155 31.0383C13.75 33.825 16.445 33 17.49 32.56C17.655 31.3683 18.1316 30.5617 18.645 30.1033C14.575 29.645 10.3033 28.0683 10.3033 21.0833C10.3033 19.0483 11 17.4167 12.1916 16.115C12.0083 15.6567 11.3666 13.75 12.375 11.275C12.375 11.275 13.915 10.78 17.4166 13.145C18.865 12.7417 20.4416 12.54 22 12.54C23.5583 12.54 25.135 12.7417 26.5833 13.145C30.085 10.78 31.625 11.275 31.625 11.275C32.6333 13.75 31.9916 15.6567 31.8083 16.115C33 17.4167 33.6966 19.0483 33.6966 21.0833C33.6966 28.0867 29.4066 29.6267 25.3183 30.085C25.9783 30.6533 26.5833 31.7717 26.5833 33.4767V38.5C26.5833 38.995 26.8766 39.5817 27.8116 39.4167C35.09 36.96 40.3333 30.1033 40.3333 22C40.3333 19.5924 39.8591 17.2084 38.9378 14.9841C38.0164 12.7598 36.666 10.7388 34.9636 9.03638C33.2612 7.33397 31.2401 5.98355 29.0158 5.06221C26.7915 4.14088 24.4075 3.66667 22 3.66667Z" fill="#F8F8F8"/>
</svg>
